<?xml version="1.0" standalone="no"?>
<!DOCTYPE svg PUBLIC "-//W3C//DTD SVG 20010904//EN"
 "http://www.w3.org/TR/2001/REC-SVG-20010904/DTD/svg10.dtd">
<svg version="1.0" xmlns="http://www.w3.org/2000/svg"
 width="1000.000000pt" height="1389.000000pt" viewBox="0 0 1000.000000 1389.000000"
 preserveAspectRatio="xMidYMid meet">

<g transform="translate(0.000000,1389.000000) scale(0.100000,-0.100000)"
fill="#000000" stroke="none">
<path d="M1 8693 c1 -3412 5 -5183 11 -5153 9 43 24 81 54 143 8 16 14 35 14
43 0 8 8 32 19 52 44 88 51 104 51 116 0 8 9 25 20 39 11 14 20 30 20 37 0 7
8 22 17 35 10 12 25 33 33 45 25 36 126 171 172 229 69 87 285 299 390 384 26
21 54 44 61 52 8 7 61 51 118 96 57 45 106 86 107 91 2 4 8 8 14 8 6 0 24 11
42 25 17 14 36 29 42 34 6 5 20 12 32 15 12 4 22 11 22 15 0 5 14 14 30 21 17
7 30 16 30 21 0 5 7 9 15 9 8 0 23 9 32 20 10 11 25 20 35 20 10 0 18 5 18 11
0 5 14 15 30 20 17 6 30 15 30 19 0 5 9 12 20 15 11 3 26 12 32 18 12 11 61
38 188 104 30 15 56 31 58 35 2 4 19 12 38 18 19 6 34 16 34 21 0 5 5 9 12 9
17 0 118 53 118 62 0 4 4 8 10 8 5 0 33 15 62 33 29 19 76 44 103 58 28 13 61
31 74 41 13 10 32 18 42 18 9 0 19 4 21 8 3 10 26 22 114 66 33 15 66 32 74
37 8 5 44 23 80 41 36 17 67 35 68 40 2 4 12 8 22 8 10 0 25 7 34 15 8 8 25
20 38 25 36 17 66 35 86 53 10 10 22 17 26 17 4 0 18 8 31 18 12 9 33 24 45
32 13 8 32 23 42 33 10 9 22 17 26 17 14 0 82 72 82 86 0 8 4 14 9 14 5 0 15
16 22 35 7 19 17 35 21 35 5 0 13 10 18 23 20 44 136 208 156 220 8 4 14 15
14 23 0 8 7 17 15 20 8 4 15 12 15 18 0 28 25 48 53 41 25 -7 27 -11 27 -54 0
-26 -5 -52 -11 -58 -8 -8 -7 -19 3 -39 22 -45 18 -256 -5 -282 -9 -10 -17 -33
-17 -50 0 -18 -4 -32 -9 -32 -11 0 -31 -57 -34 -92 -1 -13 -8 -28 -16 -34 -10
-8 -12 -19 -6 -40 l8 -29 9 35 c5 19 16 39 24 43 8 4 14 13 14 20 1 7 9 30 20
52 11 22 20 45 20 50 0 10 44 55 53 55 3 0 15 -16 27 -35 15 -25 22 -53 23
-102 l2 -68 29 3 c16 2 33 -3 37 -10 13 -20 10 -71 -5 -93 -29 -43 -61 -430
-37 -459 5 -6 13 -31 19 -56 14 -61 40 -129 55 -145 7 -8 25 -32 41 -54 17
-23 33 -41 38 -41 4 0 8 -5 8 -10 0 -13 61 -69 75 -70 6 0 24 -14 42 -30 18
-17 39 -30 47 -30 9 0 25 -9 36 -20 12 -12 33 -20 54 -20 19 0 36 -6 38 -12 3
-9 26 -13 66 -14 38 0 70 -7 86 -17 31 -21 74 -21 100 -2 10 8 23 12 28 9 17
-11 40 19 33 44 -8 32 -29 52 -63 61 -17 5 -28 15 -30 29 -6 40 -32 26 -32
-18 0 -22 5 -40 10 -40 6 0 6 -7 -2 -19 -9 -15 -17 -17 -39 -11 -15 5 -31 5
-35 2 -4 -4 -4 1 -1 10 5 14 1 18 -18 18 -41 0 -75 21 -75 46 0 13 -5 26 -11
30 -6 3 -9 17 -6 30 2 13 -2 29 -9 35 -8 6 -14 20 -14 30 0 23 21 69 32 69 17
0 7 37 -16 59 -23 21 -25 22 -29 4 -4 -16 -5 -16 -6 0 0 9 -5 17 -11 17 -5 0
-10 18 -10 40 0 42 -11 50 -36 25 -18 -18 -33 -19 -54 -4 -11 8 -12 12 -3 16
15 6 17 69 3 78 -5 3 -10 23 -10 44 0 30 -4 40 -20 44 -14 3 -20 14 -20 31 0
14 -4 26 -10 26 -5 0 -10 9 -10 20 0 17 7 20 40 20 l40 0 1 -52 c1 -29 0 -68
-1 -86 -1 -27 6 -41 44 -78 42 -40 50 -44 91 -42 60 2 53 22 -8 26 -44 3 -47
5 -47 30 l0 27 85 -2 85 -2 0 28 c0 56 -12 87 -39 102 -24 14 -26 21 -23 57 5
47 -4 95 -16 88 -4 -2 -9 5 -9 16 -1 12 -6 24 -12 27 -5 3 -12 22 -16 42 -6
32 -4 37 17 42 12 3 40 2 62 -3 21 -5 44 -7 50 -4 6 2 66 10 134 18 96 11 136
21 178 42 33 17 68 27 88 26 36 -3 132 37 182 75 17 12 34 20 39 15 4 -4 4 3
0 16 -6 22 -5 23 44 16 61 -8 111 9 111 37 0 15 7 19 33 19 34 0 52 10 132 75
28 22 66 47 85 54 19 7 42 17 50 22 8 5 25 13 36 18 14 6 24 23 28 46 5 27 15
39 40 51 18 9 45 36 61 62 16 26 50 67 75 91 l45 44 -38 -6 c-22 -3 -35 -2
-32 4 4 5 15 9 27 9 11 0 29 11 40 25 11 14 30 25 44 25 13 0 24 4 24 9 0 5
11 22 24 38 l24 29 -29 13 c-20 9 -29 20 -29 37 0 13 4 24 9 24 18 0 41 32 41
56 0 19 -5 24 -25 24 -29 0 -32 12 -8 40 21 24 43 26 43 5 0 -21 30 -31 41
-14 12 19 11 77 -1 81 -17 5 19 48 41 48 10 0 19 5 19 11 0 15 26 39 44 39 8
0 18 5 21 10 11 17 -5 50 -25 50 -14 0 -18 8 -18 33 0 17 -1 37 -2 42 -5 23 1
45 11 45 6 0 9 -9 6 -20 -4 -16 0 -20 20 -20 20 0 23 3 14 13 -14 18 -10 79 5
73 21 -8 57 40 50 68 -3 14 -2 27 3 30 5 3 12 25 15 49 6 38 10 44 29 42 32
-4 67 12 67 30 0 8 4 15 8 15 12 0 50 83 57 126 4 22 14 49 22 62 8 13 16 32
18 43 2 10 15 42 29 70 14 28 26 56 26 63 0 6 9 29 20 51 11 22 20 47 20 57 0
9 4 19 9 22 5 3 12 31 16 61 5 44 10 55 25 55 22 0 33 -41 28 -107 -3 -42 0
-49 21 -59 13 -7 30 -10 37 -7 14 5 29 93 20 121 -9 28 17 47 43 32 12 -6 21
-17 21 -25 0 -8 9 -29 20 -47 11 -18 20 -41 20 -50 0 -29 64 -128 83 -128 7 0
15 155 10 182 -3 16 -13 28 -27 32 -12 3 -36 19 -54 37 -28 28 -37 31 -71 25
-28 -4 -42 -2 -51 10 -23 27 9 46 77 46 53 0 70 -6 136 -44 42 -23 77 -47 77
-51 0 -4 9 -18 21 -30 11 -12 37 -47 57 -77 37 -55 236 -260 253 -260 5 0 9
-5 9 -10 0 -9 25 -34 132 -135 15 -14 31 -25 36 -25 6 0 12 -7 16 -15 3 -8 10
-15 15 -15 24 0 143 -118 164 -163 19 -43 21 -80 7 -175 -5 -37 -14 -114 -20
-172 -6 -58 -13 -114 -16 -125 -5 -19 1 -22 83 -32 130 -16 495 -12 517 6 19
16 189 11 336 -10 69 -10 97 -10 145 1 34 8 137 14 240 16 690 9 923 14 940
19 19 5 48 2 205 -26 43 -8 106 -9 183 -4 l117 7 0 1337 0 1338 -152 11 c-84
7 -261 14 -393 17 -132 3 -332 10 -445 16 -113 6 -315 12 -450 15 -583 11
-1347 35 -1697 54 -209 12 -229 8 -239 -47 -12 -64 1 -178 23 -207 l21 -26
454 -4 c494 -5 674 -17 820 -57 l42 -11 -54 -20 c-118 -44 -209 -50 -590 -44
-263 4 -371 10 -418 21 -35 8 -104 14 -161 14 l-100 -1 -5 -77 c-16 -207 -23
-239 -73 -325 -53 -91 -182 -227 -240 -251 -40 -17 -99 -20 -108 -5 -13 22 -6
182 9 206 19 28 22 203 6 250 -8 23 -7 41 5 73 18 51 19 109 4 148 -19 46 -38
160 -34 195 3 18 7 57 9 85 2 29 12 60 20 69 18 18 21 66 5 95 -18 34 -13 73
14 115 14 21 35 64 48 94 31 77 38 84 59 65 9 -8 21 -15 27 -15 6 0 13 -6 16
-12 2 -7 7 16 11 52 4 36 12 70 18 77 6 7 32 13 59 13 l49 0 0 -62 c0 -34 3
-58 7 -54 4 4 8 57 8 117 1 99 -1 109 -18 115 -11 3 -30 0 -43 -7 -13 -7 -26
-10 -28 -8 -3 2 -6 45 -8 95 -2 70 1 95 12 109 10 12 14 34 12 66 -2 31 2 50
10 55 7 5 45 9 83 9 39 1 93 5 122 9 41 7 71 4 145 -14 51 -13 105 -31 119
-41 51 -36 110 -44 206 -30 48 7 90 16 93 20 20 30 112 0 131 -42 13 -29 80
-86 128 -112 28 -14 48 -16 98 -11 35 4 76 11 91 17 15 6 101 12 192 14 212 4
338 14 371 31 24 12 27 11 32 -5 4 -17 19 -20 120 -26 64 -4 131 -5 149 -2 33
6 189 16 283 19 28 0 97 -9 155 -21 58 -12 170 -25 250 -30 150 -9 228 -22
239 -38 17 -26 77 -32 276 -26 l205 6 0 1859 0 1858 -5000 0 -5000 0 1 -5197z
m4761 3474 c6 -9 151 -23 291 -28 34 -1 128 -51 149 -80 12 -16 26 -29 30 -29
5 0 29 -15 53 -32 43 -32 95 -113 95 -148 0 -9 9 -25 20 -35 11 -10 20 -24 20
-30 0 -7 6 -18 14 -24 8 -7 17 -26 20 -44 3 -18 19 -61 36 -95 16 -35 30 -74
30 -86 0 -13 7 -36 14 -52 13 -26 31 -95 54 -204 4 -19 12 -34 17 -33 35 5 58
-65 39 -119 -8 -22 -9 -38 -4 -38 6 0 10 -8 10 -18 0 -10 6 -26 13 -37 7 -11
19 -47 26 -80 7 -33 17 -79 23 -102 6 -24 8 -57 4 -74 -4 -23 0 -38 18 -62 13
-18 29 -58 35 -89 6 -32 17 -68 25 -80 8 -13 18 -44 21 -70 7 -43 43 -98 64
-98 17 0 41 -81 41 -138 0 -33 5 -64 10 -67 14 -9 12 -57 -3 -93 -20 -48 -1
-216 48 -427 8 -33 22 -94 31 -135 9 -41 23 -96 31 -123 13 -42 13 -54 0 -100
-20 -69 -37 -206 -37 -295 0 -40 -4 -72 -8 -72 -5 0 -9 -53 -9 -117 0 -72 -4
-118 -10 -120 -13 -5 5 -83 18 -83 5 0 9 -6 9 -14 0 -16 26 -27 69 -28 26 -1
32 -8 54 -59 l26 -59 -60 0 c-37 0 -59 4 -59 11 0 8 -5 8 -15 -1 -20 -17 -19
-52 3 -76 36 -38 23 -54 -44 -54 -52 0 -104 -18 -104 -35 0 -21 -21 -29 -32
-14 -7 10 -8 9 -4 -6 3 -11 -1 -33 -9 -49 -30 -58 -10 -136 35 -136 22 0 30
-18 23 -54 -4 -18 -11 -26 -22 -24 -9 2 -17 9 -17 16 -1 6 -2 17 -3 23 0 5 -6
7 -11 4 -6 -4 -8 -16 -5 -26 4 -11 1 -27 -7 -36 -8 -10 -13 -44 -13 -93 0 -82
-9 -101 -59 -120 -29 -11 -46 -45 -46 -90 0 -17 -8 -34 -19 -42 -11 -8 -21
-32 -26 -58 -4 -25 -13 -55 -21 -67 -13 -20 -12 -27 6 -63 11 -21 20 -41 20
-43 0 -3 -13 -7 -30 -9 -26 -4 -30 -1 -30 18 0 22 -24 39 -41 28 -5 -3 -9 -13
-9 -23 0 -10 -7 -25 -17 -32 -19 -17 -17 -17 -35 -1 -8 6 -27 11 -41 10 -24
-2 -25 -4 -20 -53 5 -43 2 -55 -18 -80 -43 -54 -59 -92 -59 -142 0 -46 -2 -49
-40 -70 -28 -15 -40 -18 -40 -8 0 7 7 18 15 25 20 17 19 48 -2 52 -10 2 -37
-2 -60 -9 -37 -10 -44 -10 -52 5 -8 15 -12 14 -50 -3 l-41 -18 0 -67 c0 -71
-10 -90 -47 -90 -28 0 -30 -11 -3 -28 22 -13 28 -44 8 -37 -7 3 -21 -8 -30
-25 -17 -31 -41 -37 -68 -20 -13 8 -12 10 3 10 31 0 18 19 -18 26 -42 8 -64 1
-71 -23 -17 -54 -35 -83 -53 -83 -14 0 -20 -10 -24 -37 -4 -20 -2 -40 3 -43
11 -7 0 -24 -20 -29 -51 -13 -57 -12 -57 6 0 10 7 24 14 32 8 7 17 26 20 42 3
16 9 29 14 29 12 0 11 21 0 39 -8 12 -12 12 -25 -2 -9 -8 -16 -24 -16 -35 0
-14 -9 -21 -30 -25 -24 -5 -30 -12 -30 -32 0 -14 1 -26 2 -27 1 -2 -4 -13 -11
-26 -11 -20 -19 -23 -64 -20 -48 3 -52 5 -57 32 -7 38 -35 57 -52 34 -7 -8
-26 -19 -42 -22 -17 -4 -35 -15 -42 -24 -11 -15 -14 -15 -31 -1 -10 9 -23 14
-30 12 -6 -2 -14 1 -18 7 -5 8 -11 5 -20 -7 -16 -21 -27 -13 -29 19 -1 17 -8
24 -26 25 -14 1 -19 0 -12 -3 18 -9 14 -20 -8 -21 -11 -1 -20 4 -20 11 0 8 -7
19 -15 26 -12 10 -18 9 -31 -5 -16 -16 -18 -16 -35 6 -14 19 -20 21 -33 10
-18 -15 -52 -7 -60 14 -4 10 -14 13 -35 9 -24 -5 -32 -1 -47 21 l-18 27 -17
-21 c-9 -11 -20 -21 -23 -21 -3 0 -11 20 -17 45 -6 25 -17 45 -24 45 -7 0 -18
6 -24 14 -7 8 -26 18 -42 21 -20 5 -34 16 -40 33 -10 27 -63 82 -78 82 -5 0
-11 9 -14 20 -3 11 -14 20 -24 20 -10 0 -24 5 -30 11 -8 8 -14 5 -22 -10 -7
-12 -15 -21 -20 -21 -13 0 -31 49 -31 85 0 22 -6 38 -17 44 -10 6 -15 11 -10
11 4 0 0 14 -8 31 -9 17 -14 37 -11 45 3 7 -5 20 -17 29 -17 12 -21 24 -19 60
1 32 -2 45 -12 45 -8 0 -16 6 -19 14 -3 8 -16 16 -29 18 -17 2 -22 9 -20 24 3
26 -69 64 -122 64 -44 0 -46 -11 -6 -28 17 -8 30 -17 30 -21 0 -4 -13 -15 -30
-24 -27 -16 -30 -16 -30 -2 0 12 -4 13 -18 6 -12 -6 -23 -5 -36 5 -10 7 -22
11 -27 9 -4 -3 -11 -1 -14 5 -5 8 -11 8 -20 0 -19 -15 -31 -6 -38 27 -4 17
-22 40 -46 57 -22 16 -37 34 -35 41 3 7 -2 15 -10 18 -10 4 -16 18 -16 36 0
33 -28 101 -42 101 -4 0 -8 12 -9 28 0 23 -2 24 -8 8 -6 -15 -10 -16 -15 -7
-5 7 -3 18 3 24 17 17 13 34 -15 77 -21 32 -27 55 -31 117 -2 43 -9 82 -14 88
-6 5 -9 2 -9 -10 -1 -20 -1 -20 -15 -1 -20 27 -20 119 0 136 18 15 22 130 5
130 -6 0 -31 21 -55 46 -44 47 -58 85 -54 149 2 34 -30 114 -55 134 -9 7 -16
20 -16 27 0 8 -5 14 -10 14 -7 0 -10 20 -9 50 2 43 -1 54 -26 80 -21 22 -25
30 -13 30 12 0 17 12 20 46 2 25 0 48 -4 50 -5 3 -8 0 -8 -5 0 -6 -6 -11 -14
-11 -8 0 -16 15 -19 36 -3 20 -15 43 -26 53 -10 9 -21 30 -23 46 -1 17 -7 30
-13 31 -37 2 -94 27 -98 42 -3 9 -5 53 -7 97 -1 44 -5 98 -8 120 -4 22 -7 72
-6 110 1 68 4 90 24 165 6 19 10 49 10 66 0 19 6 34 14 37 10 4 13 1 9 -9 -4
-10 2 -14 20 -14 29 0 59 -34 50 -58 -4 -10 -2 -13 5 -8 6 4 12 -3 14 -16 2
-19 8 -22 33 -20 17 1 47 2 68 2 20 0 50 6 67 15 37 19 91 19 160 0 30 -9 69
-19 85 -24 17 -4 75 -5 130 -1 55 3 112 1 126 -4 19 -7 52 -3 122 13 54 12 97
26 97 31 0 4 25 11 57 15 31 4 62 9 68 11 7 3 15 -7 18 -26 5 -23 -1 -49 -23
-97 -27 -58 -40 -133 -24 -133 3 0 14 10 25 23 18 21 18 21 19 2 0 -17 2 -17
10 -5 8 13 10 12 10 -2 0 -10 -4 -18 -10 -18 -5 0 -10 -18 -10 -39 0 -22 -5
-41 -12 -44 -10 -3 -7 -12 8 -33 47 -66 48 -70 16 -137 -35 -72 -64 -166 -91
-292 l-20 -89 22 -41 c29 -52 36 -56 68 -39 16 8 30 10 34 5 3 -5 -3 -12 -12
-14 -14 -4 -13 -5 5 -6 28 -1 29 -18 0 -27 l-21 -6 24 -19 c13 -10 30 -19 37
-19 17 0 15 -7 -8 -32 -11 -12 -20 -34 -20 -48 0 -34 21 -78 40 -84 8 -3 -9
-4 -37 -2 -44 3 -54 0 -58 -15 -8 -24 -47 -47 -53 -30 -6 17 -22 14 -59 -12
-21 -14 -31 -28 -28 -38 7 -22 -22 -33 -33 -13 -10 18 -42 9 -42 -12 0 -17 3
-16 -39 -4 -32 9 -33 8 -28 -16 2 -13 0 -27 -4 -30 -5 -3 -9 -14 -9 -24 0 -21
-31 -80 -42 -80 -4 0 -16 -20 -27 -45 -21 -47 -41 -59 -41 -26 0 24 16 36 23
19 3 -7 6 -1 6 13 1 14 13 49 27 78 14 29 23 56 20 59 -3 3 3 21 13 41 25 48
46 119 38 128 -10 10 -67 -48 -73 -74 -4 -13 -10 -23 -15 -23 -5 0 -9 -5 -9
-11 0 -6 -11 -24 -25 -41 -14 -16 -25 -40 -25 -52 0 -12 -5 -27 -10 -32 -6 -6
-17 -37 -26 -70 -19 -70 -14 -175 10 -219 9 -16 16 -43 16 -59 0 -36 12 -27
16 11 13 123 17 142 33 143 9 0 40 3 69 6 62 7 107 -14 97 -46 -7 -21 13 -43
58 -67 54 -28 87 -56 87 -75 0 -10 5 -18 10 -18 6 0 10 -6 10 -13 0 -8 17 -22
38 -33 20 -10 39 -22 40 -26 2 -5 10 -8 19 -8 8 0 21 -7 29 -15 9 -8 27 -18
42 -21 15 -3 38 -18 52 -33 14 -15 43 -31 64 -36 47 -12 53 -24 26 -55 -11
-13 -20 -36 -20 -52 0 -25 4 -28 33 -28 17 0 40 -7 50 -15 11 -7 24 -12 31 -9
6 2 20 -2 31 -10 11 -8 29 -11 44 -7 14 4 74 6 134 6 59 0 107 3 107 7 0 5 18
8 39 8 22 0 43 5 46 10 3 6 19 10 35 10 16 0 44 9 62 20 l32 19 -27 10 c-25
10 -38 31 -18 31 5 0 8 7 7 16 0 10 15 25 38 37 36 19 37 21 20 34 -10 7 -26
11 -36 7 -10 -3 -36 -7 -59 -9 -22 -2 -46 -8 -53 -14 -9 -7 -16 -7 -24 1 -9 9
-16 7 -31 -6 -18 -16 -21 -16 -55 4 -20 11 -54 20 -76 20 -39 0 -59 13 -39 25
13 8 3 57 -14 67 -8 5 -1 18 23 40 31 29 42 33 95 34 33 1 105 7 160 14 80 9
107 9 138 -1 35 -12 41 -11 53 5 17 24 38 12 24 -15 -17 -31 17 -79 35 -49 3
5 6 34 6 65 1 30 5 55 10 55 5 0 9 -14 9 -30 0 -17 6 -33 14 -36 19 -7 75 22
106 55 14 15 46 36 73 45 26 10 47 22 47 27 0 5 5 9 11 9 7 0 34 20 60 45 30
28 57 45 73 45 32 0 68 45 64 79 -3 29 -3 29 -193 15 -84 -6 -129 -1 -236 27
-68 17 -319 23 -409 9 -120 -19 -131 -19 -167 -4 -71 28 -250 33 -323 7 -25
-8 -66 -15 -92 -14 -35 0 -48 -3 -48 -14 0 -7 -9 -17 -20 -20 -11 -3 -20 -10
-20 -15 0 -12 -80 -24 -91 -13 -16 16 1 42 41 59 22 10 41 26 44 38 4 16 8 18
18 8 16 -16 45 -15 51 2 3 7 3 41 0 75 -4 55 -2 64 18 82 27 24 45 24 51 2 7
-25 -1 -43 -18 -43 -8 0 -14 -5 -14 -11 0 -7 7 -8 18 -4 39 17 65 17 97 -1
l34 -18 51 52 c27 28 50 57 50 63 0 7 -4 8 -12 2 -9 -6 -25 -3 -48 9 l-35 18
32 0 c17 0 34 6 37 13 5 10 7 10 12 0 3 -7 12 -13 20 -13 8 0 14 -7 14 -15 0
-21 23 -19 49 5 14 12 24 32 24 52 1 18 6 36 11 40 6 4 6 20 -1 42 -11 37 -7
42 35 37 6 -1 12 2 12 8 0 5 17 20 38 32 20 13 39 26 42 30 3 3 22 12 43 20
20 7 37 17 37 21 0 4 7 8 16 8 11 0 14 5 9 18 -4 9 -8 27 -10 40 -2 19 2 22
31 22 18 0 45 5 59 10 35 13 65 -2 58 -30 -3 -11 -10 -20 -16 -20 -27 0 -85
-37 -94 -61 -13 -34 10 -49 77 -49 37 0 54 5 67 19 9 11 20 18 25 15 13 -8 58
27 75 59 8 17 23 54 33 83 22 64 9 82 -27 39 l-24 -28 -17 24 c-24 36 -65 72
-105 93 -34 18 -37 18 -82 1 -32 -13 -54 -30 -73 -58 -52 -75 -97 -110 -132
-102 -14 4 -29 13 -33 20 -7 14 -20 20 -114 60 -24 10 -43 23 -43 29 0 6 -14
22 -31 36 -49 40 -120 148 -140 212 -23 72 -26 168 -5 168 7 0 16 13 19 29 3
16 12 35 19 42 8 8 24 40 37 71 19 46 22 68 17 115 -16 149 -17 200 -4 258 18
82 14 212 -11 320 -36 162 -58 204 -108 205 -13 0 -23 6 -23 14 0 8 -11 27
-24 43 -14 16 -28 42 -32 57 -3 15 -13 30 -20 33 -8 3 -14 11 -14 17 0 15 -42
36 -71 36 -12 0 -44 13 -73 29 -63 34 -166 49 -211 30 -17 -7 -77 -16 -135
-20 -259 -20 -304 -32 -372 -101 -21 -20 -53 -42 -72 -49 -20 -7 -38 -20 -41
-28 -7 -24 -70 -91 -84 -91 -7 0 -26 -10 -43 -21 -23 -17 -27 -24 -16 -30 8
-6 1 -7 -19 -3 -30 6 -32 4 -42 -31 -6 -21 -8 -41 -6 -45 2 -3 -4 -14 -15 -22
-17 -15 -19 -15 -24 -1 -4 9 0 21 8 27 11 8 16 35 17 91 1 44 7 86 13 94 6 7
11 73 12 149 1 91 5 137 13 140 6 2 11 9 11 17 0 7 7 18 15 25 12 10 15 10 15
-4 0 -9 4 -16 9 -16 5 0 11 -22 15 -49 6 -49 35 -90 43 -63 3 6 13 12 23 12
14 0 19 10 23 43 3 23 10 62 15 86 13 57 -1 111 -28 111 -25 0 -25 6 2 57 l22
42 -22 24 c-16 17 -22 36 -22 69 0 32 -5 48 -15 52 -9 3 -15 19 -15 41 0 29
-4 35 -21 35 -15 0 -19 -4 -15 -16 17 -45 18 -64 2 -64 -9 0 -16 -8 -16 -19 0
-10 -7 -25 -16 -32 -14 -12 -16 -9 -13 22 2 19 -1 40 -5 47 -14 23 -11 83 4
92 9 6 17 5 21 -2 11 -18 35 7 43 42 8 40 -3 90 -20 90 -17 0 -19 85 -5 134 5
17 14 53 20 80 11 48 43 101 54 90 10 -10 48 7 41 18 -5 7 -2 8 6 3 8 -5 17
-2 24 6 6 8 27 21 46 29 19 7 44 20 55 29 33 27 57 37 115 51 30 8 62 20 71
27 8 7 19 13 23 13 5 0 21 11 38 25 16 14 37 25 46 25 22 0 72 50 72 72 0 15
8 18 46 18 30 0 51 5 58 15 6 8 43 23 81 33 70 17 70 17 115 -5 59 -29 77 -29
76 -1 -1 33 40 50 87 37 43 -12 44 -15 15 -40 l-23 -18 42 -1 c37 0 48 6 87
45 25 25 51 45 58 46 7 1 28 2 46 4 18 1 41 10 50 18 20 18 83 43 130 51 24 4
32 2 32 -9 0 -21 10 -19 36 6 22 21 25 21 68 7 38 -13 48 -13 71 0 19 9 34 11
48 5 14 -7 31 -4 56 9 26 14 53 18 96 17 33 -2 73 1 89 6 19 5 36 4 48 -4 10
-6 23 -9 28 -6 5 3 40 8 77 11 37 3 69 7 73 10 9 10 145 -7 152 -19z m-2342
-1184 c0 -46 -24 -133 -36 -133 -7 0 -14 -7 -18 -15 -3 -8 -15 -15 -26 -15
-11 0 -20 7 -20 15 0 8 4 15 9 15 18 0 33 67 21 90 -16 29 11 70 45 70 21 0
25 -5 25 -27z m653 -625 c23 -13 44 -26 47 -29 3 -3 26 -9 53 -13 37 -6 53
-14 75 -42 15 -19 32 -34 37 -34 14 0 45 -37 38 -44 -4 -3 -20 -6 -37 -6 -46
0 -276 -46 -316 -62 -59 -25 -64 -28 -95 -48 -16 -10 -48 -28 -70 -40 -23 -12
-60 -39 -85 -61 -24 -21 -47 -39 -51 -39 -4 0 -11 -9 -14 -21 -4 -11 -9 -18
-12 -15 -4 3 -12 1 -20 -6 -7 -6 -16 -8 -20 -5 -9 10 26 59 37 52 6 -4 10 0
10 7 0 32 -14 56 -36 67 -27 12 -32 31 -9 31 22 0 19 10 -17 47 -23 23 -27 33
-16 33 17 0 32 26 22 41 -3 5 -12 9 -20 9 -8 0 -14 10 -14 24 0 21 5 24 60 30
33 4 62 11 65 16 4 6 13 10 22 10 9 0 24 7 34 16 10 9 29 17 43 18 14 0 26 4
26 9 0 4 13 7 28 7 20 0 39 11 61 35 28 31 37 35 82 35 33 0 64 -8 92 -22z
m147 -255 l25 -7 -25 -7 c-20 -6 -17 -7 18 -8 23 -1 42 -5 42 -11 0 -6 -35
-10 -85 -10 -65 0 -95 -5 -123 -19 -42 -22 -124 -31 -129 -15 -2 6 21 23 52
38 30 16 55 32 55 37 0 11 133 12 170 2z m162 -180 c24 -11 38 -23 36 -33 -2
-8 -9 -15 -16 -14 -6 1 -26 2 -42 3 -32 1 -46 20 -36 46 7 19 11 19 58 -2z
m-104 -99 c2 -1 -6 -12 -18 -24 -16 -16 -20 -28 -15 -50 3 -16 2 -38 -4 -48
-9 -17 -16 -19 -48 -12 -26 6 -54 4 -94 -7 -67 -18 -138 -11 -163 16 -22 24
-14 29 54 32 30 1 60 6 65 10 12 9 61 6 72 -4 3 -4 17 -7 30 -7 30 0 33 39 3
47 -25 7 -27 50 -2 56 16 4 114 -3 120 -9z m301 -3 c19 -12 8 -37 -19 -44 -16
-4 -23 0 -29 16 -12 31 17 48 48 28z m-1529 -99 c-11 -20 -20 -49 -20 -64 0
-34 -13 -36 -27 -5 -16 34 0 103 28 126 24 19 24 19 31 0 5 -13 0 -33 -12 -57z
m1040 59 c0 -14 -18 -23 -30 -16 -6 4 -8 11 -5 16 8 12 35 12 35 0z m-780 -57
c0 -14 -4 -23 -9 -19 -11 6 -10 45 1 45 4 0 8 -12 8 -26z m-3 -226 c-3 -8 -6
-5 -6 6 -1 11 2 17 5 13 3 -3 4 -12 1 -19z m-280 -30 c-3 -8 -6 -5 -6 6 -1 11
2 17 5 13 3 -3 4 -12 1 -19z m1563 -178 c0 -29 -4 -40 -15 -40 -11 0 -15 11
-15 40 0 29 4 40 15 40 11 0 15 -11 15 -40z m-1531 -139 c-1 -88 2 -164 5
-170 4 -5 2 -12 -3 -15 -5 -4 -13 24 -17 61 -4 38 -9 62 -12 54 -10 -28 -17 9
-12 66 l4 58 7 -55 c5 -46 6 -38 7 46 2 88 6 114 18 114 2 0 3 -72 3 -159z
m6055 35 c-17 -9 -15 -11 16 -17 30 -5 27 -6 -20 -7 -30 0 -49 2 -42 5 26 10
10 23 -30 25 l-43 1 45 6 c25 3 56 4 69 2 22 -4 22 -5 5 -15z m-5975 -268 c1
-16 6 -28 11 -28 6 0 10 -19 10 -42 l-1 -43 -24 45 c-24 46 -30 84 -18 116 6
16 7 16 14 -2 4 -10 8 -31 8 -46z m-38 -91 c-8 -11 -9 -36 -2 -98 10 -90 26
-114 68 -106 33 6 46 -15 35 -56 -6 -20 -6 -40 -1 -48 5 -8 9 -26 9 -41 0 -16
5 -28 10 -28 6 0 10 -18 10 -40 0 -51 -19 -53 -22 -2 l-1 37 -4 -37 c-4 -33
-27 -57 -41 -43 -3 3 0 5 6 5 7 0 12 6 12 13 0 8 -16 12 -46 12 -38 1 -51 6
-70 28 -30 35 -31 73 -4 193 11 49 20 127 20 174 0 79 1 83 17 68 13 -13 14
-20 4 -31z m1512 -230 c-3 -5 -9 -3 -14 4 -4 7 -5 17 -2 22 3 5 9 3 14 -4 4
-7 5 -17 2 -22z m132 -157 c-3 -5 -10 -10 -16 -10 -5 0 -9 5 -9 10 0 6 7 10
16 10 8 0 12 -4 9 -10z m2412 -62 c-3 -7 -5 -2 -5 12 0 14 2 19 5 13 2 -7 2
-19 0 -25z m-1 -85 c-11 -11 -17 4 -9 23 7 18 8 18 11 1 2 -10 1 -21 -2 -24z
m-3386 0 c-8 -2 -22 -7 -30 -10 -31 -12 -48 -12 -53 0 -3 9 10 13 47 14 28 1
44 -1 36 -4z m3330 -43 c0 -5 -4 -10 -10 -10 -5 0 -10 5 -10 10 0 6 5 10 10
10 6 0 10 -4 10 -10z m-20 -32 c0 -20 -32 -48 -57 -48 -16 0 -23 -6 -23 -20 0
-16 -7 -20 -36 -20 -19 0 -43 7 -51 16 -22 21 -26 64 -7 64 8 0 14 5 14 10 0
6 33 10 80 10 54 0 80 -4 80 -12z m40 -28 c0 -5 -10 -10 -22 -10 -19 0 -20 2
-8 10 19 13 30 13 30 0z m-1800 -105 c27 -14 33 -14 60 0 38 20 93 19 133 -2
18 -9 51 -16 77 -15 52 2 73 -8 68 -34 -2 -12 -18 -23 -46 -30 -23 -7 -54 -22
-69 -33 -14 -12 -32 -21 -40 -21 -8 0 -21 -7 -29 -15 -9 -8 -30 -15 -47 -15
-18 0 -42 -6 -52 -14 -11 -8 -41 -18 -65 -24 -34 -7 -38 -10 -17 -11 15 -1 27
-5 27 -10 0 -4 -53 -9 -117 -10 -64 -1 -119 -4 -123 -6 -3 -2 -55 1 -115 6
-61 5 -120 9 -132 9 -32 0 -135 28 -147 40 -5 5 -25 10 -44 10 -72 0 -94 43
-49 96 21 24 26 25 44 13 22 -13 22 -13 90 36 9 7 25 3 53 -13 41 -23 50 -22
85 9 28 24 164 22 192 -4 25 -22 41 -22 61 3 11 13 36 24 70 29 29 4 55 11 59
15 11 11 43 7 73 -9z m1699 -51 c-8 -10 -14 -11 -24 -1 -7 7 -9 14 -4 15 5 2
9 11 9 20 1 15 3 14 15 -2 11 -14 12 -23 4 -32z m-3329 -1 c0 -10 3 -28 6 -40
5 -17 2 -23 -10 -23 -12 0 -16 10 -16 40 0 22 5 40 10 40 6 0 10 -8 10 -17z
m36 -120 c2 -13 9 -23 15 -23 13 0 44 -31 52 -52 4 -11 2 -18 -6 -18 -8 0 -8
-3 -2 -8 21 -14 55 -65 49 -73 -3 -5 0 -9 6 -9 17 0 40 -26 40 -45 0 -13 -4
-14 -21 -5 -11 6 -32 10 -46 8 -17 -2 -29 3 -37 16 -14 25 -27 43 -47 64 -21
23 -30 84 -22 152 4 30 9 46 10 35 2 -11 6 -30 9 -42z m3239 -23 c4 -23 1 -41
-8 -54 -13 -18 -15 -18 -40 10 -34 36 -34 43 0 71 31 27 39 22 48 -27z m-1341
15 c-25 -19 -54 -19 -54 0 0 11 11 15 37 15 35 0 36 -1 17 -15z m1350 -111 c9
-24 7 -31 -9 -38 -11 -4 -15 2 -15 24 0 32 14 40 24 14z m-2015 -90 c18 -49
18 -50 -4 -66 -20 -15 -65 -15 -65 0 0 24 35 122 42 120 5 -2 18 -26 27 -54z
m-78 -115 c35 -45 14 -64 -41 -36 -26 13 -33 33 -18 54 13 17 38 10 59 -18z
m149 -47 c0 -15 5 -33 12 -40 9 -9 4 -12 -26 -12 -33 0 -37 2 -26 15 7 8 10
25 6 40 -5 20 -3 25 14 25 15 0 20 -7 20 -28z m267 8 c-1 -8 4 -14 11 -12 6 1
12 -2 12 -8 0 -12 -13 -13 -24 -2 -4 4 -17 7 -29 7 -13 0 -23 7 -25 18 -3 14
3 17 27 15 21 -2 30 -7 28 -18z m1442 -26 c-14 -18 -24 -11 -15 11 3 9 11 13
16 10 8 -5 7 -11 -1 -21z m-2406 -111 c-7 -2 -19 -2 -25 0 -7 3 -2 5 12 5 14
0 19 -2 13 -5z m2332 -33 c-4 -6 1 -7 11 -3 13 5 15 2 9 -18 -9 -27 -22 -39
-45 -39 -12 0 -13 2 -1 9 7 5 10 14 6 20 -9 15 1 41 15 41 6 0 8 -4 5 -10z
m-2350 -10 c3 -5 1 -10 -4 -10 -6 0 -11 5 -11 10 0 6 2 10 4 10 3 0 8 -4 11
-10z m45 -57 c-1 -27 -1 -27 -15 -9 -14 19 -12 36 6 36 5 0 9 -12 9 -27z
m2218 -6 c6 -28 -71 -77 -119 -77 -26 0 -26 46 1 60 11 6 20 18 20 26 0 24 94
15 98 -9z m102 -332 c0 -27 -18 -33 -38 -13 -10 10 -7 15 10 25 13 7 24 12 26
13 1 0 2 -11 2 -25z m-495 -5 c3 -5 2 -10 -4 -10 -5 0 -13 5 -16 10 -3 6 -2
10 4 10 5 0 13 -4 16 -10z m289 -349 c3 -5 -1 -12 -10 -15 -22 -9 -24 -8 -24
9 0 16 25 21 34 6z m-1478 -1128 c-11 -11 -19 6 -11 24 8 17 8 17 12 0 3 -10
2 -21 -1 -24z"/>
<path d="M4820 10761 c-67 -36 -77 -39 -122 -34 -61 7 -199 -14 -246 -38 -20
-11 -42 -19 -50 -19 -7 0 -30 -9 -50 -19 -21 -11 -49 -17 -63 -14 -15 3 -33
-2 -47 -14 -19 -15 -22 -29 -23 -93 -2 -97 -1 -100 14 -100 7 0 21 -6 31 -13
16 -12 15 -16 -6 -67 -12 -30 -26 -56 -30 -58 -4 -2 -8 -14 -8 -27 0 -12 -7
-28 -15 -35 -12 -10 -13 -15 -4 -21 9 -5 5 -17 -15 -43 -35 -46 -34 -102 2
-99 12 2 22 -2 22 -7 0 -6 -7 -10 -15 -10 -8 0 -15 -9 -15 -20 0 -11 7 -20 15
-20 8 0 15 -9 15 -20 0 -14 -7 -20 -24 -20 -13 0 -27 6 -29 13 -3 6 -3 -13 0
-43 5 -46 12 -61 42 -93 20 -21 37 -33 39 -27 3 8 8 7 18 -1 8 -6 25 -9 39 -7
22 5 25 2 25 -23 0 -34 13 -44 31 -23 11 14 10 18 -6 30 -10 8 -14 14 -8 14
19 0 23 69 5 90 -38 42 -43 52 -40 82 2 25 9 33 29 39 22 5 29 2 37 -16 6 -13
27 -29 46 -36 40 -14 49 -44 17 -54 -11 -3 -23 -14 -26 -24 -8 -26 58 -89 104
-100 34 -7 59 -5 181 14 25 4 62 3 83 -3 36 -10 37 -10 31 15 -7 26 -14 35
-60 87 -37 41 -31 48 38 45 67 -4 91 13 44 31 -24 9 -25 12 -14 30 10 16 21
20 48 18 22 -2 34 -8 32 -15 -1 -9 10 -13 33 -13 19 0 35 5 35 10 0 7 6 7 18
1 9 -5 40 -8 67 -8 39 2 66 -6 119 -32 55 -27 75 -32 107 -27 24 4 55 0 85
-10 59 -20 114 -12 114 16 0 11 -7 20 -15 20 -8 0 -15 5 -15 10 0 6 -6 10 -14
10 -8 0 -17 12 -21 27 -3 14 -38 59 -76 99 -53 54 -89 81 -145 108 -41 20 -80
36 -86 36 -6 0 -19 6 -27 13 -28 24 -123 46 -233 55 -77 6 -111 13 -123 25 -9
10 -30 17 -46 17 -29 0 -39 13 -19 25 6 3 10 17 10 29 0 26 57 69 105 80 17 3
41 9 55 12 98 20 224 20 274 -1 21 -9 71 -17 112 -18 51 -1 74 -6 74 -14 0 -7
7 -13 15 -13 8 0 19 -9 25 -21 9 -15 19 -19 43 -17 28 3 32 7 32 33 0 29 -1
30 -53 33 -56 3 -67 20 -21 33 13 4 20 7 16 8 -4 1 -4 9 1 18 8 13 3 24 -21
47 -17 17 -38 30 -47 28 -10 -2 -20 4 -24 13 -3 10 -16 15 -34 13 -37 -3 -90
20 -97 41 -3 10 -21 25 -40 34 -19 9 -35 21 -35 27 0 13 -110 13 -144 0 -16
-6 -27 -6 -31 0 -7 12 -24 12 -45 1z m-503 -183 c-3 -7 -5 -2 -5 12 0 14 2 19
5 13 2 -7 2 -19 0 -25z m618 -303 c0 -13 -49 -19 -83 -10 -21 5 -23 8 -11 16
18 12 94 7 94 -6z m90 -35 c3 -6 -5 -10 -19 -10 -14 0 -28 5 -31 10 -3 6 5 10
19 10 14 0 28 -4 31 -10z m-390 -156 c0 -25 -4 -29 -30 -31 -55 -5 -62 5 -26
38 39 35 56 33 56 -7z m-280 -34 c3 -5 1 -10 -4 -10 -6 0 -11 5 -11 10 0 6 2
10 4 10 3 0 8 -4 11 -10z"/>
<path d="M5100 9900 c-13 -8 -12 -10 3 -10 9 0 17 5 17 10 0 12 -1 12 -20 0z"/>
<path d="M4978 9853 c7 -3 16 -2 19 1 4 3 -2 6 -13 5 -11 0 -14 -3 -6 -6z"/>
<path d="M4160 8680 c0 -5 7 -7 15 -4 8 4 15 8 15 10 0 2 -7 4 -15 4 -8 0 -15
-4 -15 -10z"/>
<path d="M4117 8610 c-4 -18 -13 -30 -22 -30 -9 0 -15 -9 -15 -21 0 -16 -4
-19 -17 -14 -10 4 -33 9 -50 12 l-33 6 0 -47 c0 -25 5 -46 10 -46 6 0 10 -10
10 -21 0 -18 3 -19 15 -9 8 7 25 10 40 6 22 -6 25 -12 25 -50 0 -54 22 -78 42
-47 16 26 28 27 28 2 0 -25 36 -17 51 11 13 25 3 54 -32 91 -16 16 -29 34 -29
38 0 23 26 60 46 65 23 6 23 7 6 29 -9 13 -20 21 -24 18 -5 -2 -8 5 -8 16 0
35 -36 27 -43 -9z"/>
<path d="M4955 8611 c-3 -6 9 -25 27 -44 101 -106 178 -200 178 -217 0 -5 9
-25 20 -45 11 -20 20 -45 20 -57 0 -12 7 -44 15 -72 8 -28 17 -68 20 -90 4
-21 8 -36 11 -33 12 12 32 182 23 198 -5 10 -9 26 -9 36 0 19 -20 63 -56 119
-20 32 -91 114 -98 114 -3 0 -22 16 -43 35 -21 19 -42 35 -46 35 -5 0 -15 7
-23 15 -18 17 -30 19 -39 6z"/>
<path d="M6000 8520 c0 -5 5 -10 10 -10 6 0 10 5 10 10 0 6 -4 10 -10 10 -5 0
-10 -4 -10 -10z"/>
<path d="M3226 8471 c-4 -7 -5 -15 -2 -18 9 -9 19 4 14 18 -4 11 -6 11 -12 0z"/>
<path d="M4905 8340 c-4 -7 -3 -16 3 -22 14 -14 45 -2 40 15 -6 16 -34 21 -43
7z"/>
<path d="M4932 8273 c4 -24 83 -27 83 -3 0 11 -13 16 -43 18 -38 3 -43 1 -40
-15z"/>
<path d="M2800 8114 c0 -8 5 -12 10 -9 6 3 10 10 10 16 0 5 -4 9 -10 9 -5 0
-10 -7 -10 -16z"/>
<path d="M3110 7946 c0 -23 16 -36 46 -36 22 0 17 27 -8 44 -31 22 -38 20 -38
-8z"/>
<path d="M5680 7876 c0 -9 10 -13 33 -11 47 4 47 4 47 15 0 6 -18 10 -40 10
-27 0 -40 -4 -40 -14z"/>
<path d="M4320 7751 c-44 -4 -64 -10 -62 -18 2 -14 1 -14 -63 -19 -63 -4 -74
-7 -69 -16 5 -8 172 -9 187 -1 4 3 3 11 -3 18 -9 11 -7 14 12 13 52 -3 78 2
78 17 0 8 -3 14 -7 13 -5 -1 -37 -4 -73 -7z"/>
<path d="M5655 7660 c-3 -5 1 -10 9 -10 9 0 16 5 16 10 0 6 -4 10 -9 10 -6 0
-13 -4 -16 -10z"/>
<path d="M5476 7475 c-8 -32 -3 -40 19 -32 19 8 19 18 1 42 -12 17 -13 16 -20
-10z"/>
<path d="M5100 7400 c0 -5 5 -10 10 -10 6 0 10 5 10 10 0 6 -4 10 -10 10 -5 0
-10 -4 -10 -10z"/>
<path d="M5275 7244 c-19 -45 -19 -50 -1 -57 23 -9 44 15 48 53 4 51 -26 54
-47 4z"/>
<path d="M4995 7160 c4 -6 11 -8 16 -5 14 9 11 15 -7 15 -8 0 -12 -5 -9 -10z"/>
<path d="M4960 7025 c0 -9 -4 -14 -9 -11 -5 3 -11 -7 -14 -22 -6 -29 6 -42 39
-42 40 0 45 47 9 73 -22 16 -25 16 -25 2z"/>
<path d="M4834 6995 c-8 -19 -6 -20 24 -29 28 -9 30 14 2 32 -17 10 -21 10
-26 -3z"/>
<path d="M4726 6933 c6 -4 17 -25 23 -45 17 -52 41 -50 41 2 0 25 -5 40 -12
40 -7 0 -24 3 -38 6 -14 3 -20 2 -14 -3z"/>
<path d="M3852 6918 c-7 -7 -12 -16 -12 -20 0 -12 28 -10 36 3 10 17 -10 31
-24 17z"/>
<path d="M6561 9865 c-1 -11 -4 -30 -7 -43 -4 -14 -2 -22 4 -20 6 2 18 -6 26
-17 15 -19 15 -18 16 17 0 21 -6 41 -14 45 -7 4 -16 15 -19 23 -4 11 -6 10 -6
-5z"/>
<path d="M6482 9708 c2 -13 10 -23 18 -23 8 0 16 10 18 23 3 17 -2 22 -18 22
-16 0 -21 -5 -18 -22z"/>
<path d="M6556 9704 c-4 -14 -5 -28 -3 -31 3 -2 8 8 11 23 4 14 5 28 3 31 -3
2 -8 -8 -11 -23z"/>
<path d="M6562 9560 c0 -19 2 -27 5 -17 2 9 2 25 0 35 -3 9 -5 1 -5 -18z"/>
<path d="M6235 7708 c9 -24 13 -351 5 -382 -5 -17 -11 -76 -15 -130 -3 -55 -8
-103 -11 -108 -3 -5 -7 -34 -9 -66 -6 -99 -41 -212 -65 -212 -4 0 -16 -26 -26
-57 -10 -31 -26 -65 -36 -75 -10 -10 -18 -26 -18 -35 0 -17 -38 -102 -51 -113
-9 -8 -49 -95 -49 -107 0 -5 -8 -18 -19 -27 -10 -9 -21 -31 -25 -47 -4 -19
-13 -33 -26 -36 -10 -3 -22 -13 -25 -22 -3 -9 -21 -33 -40 -54 -23 -25 -37
-52 -41 -79 -7 -44 3 -58 44 -58 26 0 29 -22 6 -45 -9 -9 -18 -40 -21 -75 -3
-33 -10 -61 -14 -61 -5 -1 -15 -2 -21 -3 -7 -1 -22 -9 -33 -19 -11 -10 -30
-20 -42 -23 -14 -4 -23 -14 -23 -25 0 -10 -4 -19 -10 -19 -5 0 -10 -21 -10
-46 0 -25 -5 -54 -10 -65 -6 -11 -8 -24 -5 -29 10 -15 35 15 35 42 1 21 1 22
11 5 8 -14 8 -22 0 -30 -6 -6 -11 -21 -11 -34 0 -14 -6 -23 -16 -23 -13 0 -15
-9 -13 -47 4 -53 -23 -119 -43 -107 -6 4 -8 3 -5 -3 8 -12 -28 -99 -50 -125
-9 -10 -13 -24 -9 -33 6 -18 -26 -85 -54 -110 -13 -12 -19 -29 -18 -53 1 -22
-5 -39 -15 -47 -9 -7 -17 -20 -17 -29 0 -9 -5 -16 -12 -16 -6 0 -9 -3 -6 -6 9
-8 106 26 119 42 6 8 16 14 21 14 17 0 58 55 94 125 20 39 47 84 60 102 13 17
24 34 24 38 0 7 19 49 117 254 34 73 63 139 63 145 0 6 6 20 14 31 7 11 25 56
40 100 15 44 31 88 36 97 6 10 10 23 10 30 1 7 9 31 20 53 11 22 19 47 20 55
0 9 6 24 14 35 7 11 18 40 24 65 5 25 15 59 20 75 6 17 22 64 35 105 14 41 37
109 51 150 14 41 35 109 46 150 12 41 28 90 36 108 7 18 14 40 14 49 0 9 9 34
19 57 38 81 51 114 51 128 0 7 7 23 15 35 25 36 30 99 10 141 -10 20 -24 51
-33 69 -9 19 -13 46 -9 66 3 19 2 39 -3 43 -12 14 -38 104 -45 159 -7 49 -46
125 -65 125 -5 0 -7 -6 -5 -12z"/>
<path d="M6376 7425 c-4 -11 2 -15 24 -15 20 0 30 5 30 15 0 9 -9 15 -24 15
-13 0 -26 -7 -30 -15z"/>
<path d="M8146 6431 c-3 -5 8 -14 24 -20 17 -5 30 -15 30 -20 0 -6 20 -11 45
-11 25 0 45 5 45 10 0 6 -4 10 -10 10 -5 0 -10 6 -10 14 0 7 -10 16 -22 20
-35 9 -96 7 -102 -3z"/>
<path d="M8734 6377 c-23 -12 -58 -37 -78 -54 -28 -25 -46 -33 -76 -33 -37 0
-39 -2 -31 -22 6 -16 20 -25 50 -31 22 -4 41 -12 41 -16 0 -5 20 -14 45 -21
25 -7 48 -17 51 -21 3 -5 13 -9 22 -9 9 -1 35 -9 57 -20 22 -11 46 -19 53 -20
6 0 29 -9 49 -20 21 -11 46 -20 55 -20 10 0 18 -4 18 -9 0 -5 15 -13 33 -16
17 -4 39 -13 47 -20 8 -7 32 -15 53 -19 20 -4 37 -11 37 -15 0 -5 17 -12 38
-16 20 -3 46 -12 57 -19 11 -7 38 -16 60 -20 22 -4 45 -11 50 -16 14 -12 117
-50 135 -50 8 -1 33 -9 55 -20 22 -11 51 -20 65 -20 14 0 34 -7 44 -15 11 -8
32 -15 47 -15 14 0 32 -7 39 -15 6 -8 21 -17 32 -21 11 -3 35 -20 54 -37 89
-84 105 -97 114 -97 5 0 11 -8 13 -17 3 -11 5 -6 7 12 1 17 4 24 7 18 18 -47
23 21 23 332 l0 345 -78 0 c-43 0 -104 -5 -135 -10 -62 -12 -507 -20 -507 -9
0 4 -14 9 -31 13 -17 3 -46 13 -65 22 -32 15 -41 15 -92 3 -70 -17 -204 -18
-210 -1 -2 7 -13 12 -24 12 -10 0 -26 7 -34 15 -20 20 -41 18 -90 -8z"/>
<path d="M3335 6320 c-3 -5 1 -10 10 -10 9 0 13 5 10 10 -3 6 -8 10 -10 10 -2
0 -7 -4 -10 -10z"/>
<path d="M5592 5550 c0 -14 2 -19 5 -12 2 6 2 18 0 25 -3 6 -5 1 -5 -13z"/>
<path d="M4000 5175 c0 -48 12 -57 32 -25 7 11 21 20 30 20 10 0 18 5 18 10 0
6 -4 10 -10 10 -5 0 -10 7 -10 15 0 10 -10 15 -30 15 -29 0 -30 -2 -30 -45z"/>
<path d="M5290 4490 c-13 -17 -34 -33 -48 -37 -40 -10 -107 -49 -110 -64 -4
-23 36 -107 57 -118 12 -7 26 -5 45 5 16 8 34 14 42 14 7 0 17 6 21 14 4 7 18
18 31 25 25 13 52 70 52 111 0 26 -39 80 -58 80 -5 0 -19 -14 -32 -30z"/>
<path d="M5652 4508 c5 -15 28 -23 28 -10 0 5 -7 13 -16 16 -10 4 -14 1 -12
-6z"/>
<path d="M5680 4474 c0 -9 22 -48 37 -66 21 -23 46 -13 32 14 -20 38 -69 75
-69 52z"/>
<path d="M2214 4288 c-42 -49 -41 -93 2 -82 28 7 34 -16 9 -36 -8 -7 -15 -17
-15 -23 0 -5 -16 -29 -35 -53 -19 -23 -35 -47 -35 -53 0 -6 -4 -11 -9 -11 -5
0 -12 -13 -16 -29 -3 -16 -13 -32 -21 -35 -8 -3 -14 -15 -14 -26 0 -11 -15
-36 -34 -56 -37 -39 -53 -84 -29 -84 20 0 73 61 103 117 14 27 37 62 52 78 16
17 31 38 34 48 7 23 48 67 63 67 6 0 11 -13 11 -30 0 -16 3 -30 8 -30 4 0 20
-21 36 -48 41 -66 66 -92 105 -108 37 -15 64 -19 43 -5 -10 6 -8 10 9 14 19 5
21 9 11 19 -6 6 -12 18 -12 25 0 7 -7 21 -16 31 -53 59 -148 181 -157 202 -7
14 -17 28 -24 33 -6 4 -14 21 -18 37 -4 17 -10 30 -15 30 -5 0 -10 7 -12 16
-2 13 -7 11 -24 -8z"/>
<path d="M6000 3963 c0 -21 8 -40 23 -53 30 -30 57 -43 57 -30 0 5 -4 10 -9
10 -5 0 -14 12 -20 28 -6 15 -20 38 -31 52 l-20 25 0 -32z"/>
<path d="M2520 3882 c0 -26 2 -28 36 -24 24 3 39 0 45 -9 6 -10 9 -7 9 11 0
20 -7 29 -33 38 -49 18 -57 15 -57 -16z"/>
<path d="M8623 3891 c-15 -4 -20 -10 -14 -19 6 -10 14 -10 34 -3 15 6 27 12
27 15 0 8 -26 12 -47 7z"/>
<path d="M2545 3820 c-4 -6 5 -10 19 -10 14 0 26 5 26 10 0 6 -9 10 -19 10
-11 0 -23 -4 -26 -10z"/>
<path d="M2630 3821 c0 -6 5 -13 11 -17 8 -5 8 -9 -1 -14 -7 -4 -9 -16 -5 -29
5 -17 14 -21 52 -21 37 0 43 3 34 13 -6 8 -9 16 -6 19 5 5 -68 58 -80 58 -3 0
-5 -4 -5 -9z"/>
<path d="M8610 3821 c0 -5 -3 -16 -6 -25 -5 -12 0 -16 20 -16 29 0 30 3 16 31
-11 20 -30 26 -30 10z"/>
<path d="M2785 3730 c-21 -23 -21 -22 23 -44 17 -9 32 -21 32 -26 0 -6 5 -10
10 -10 17 0 11 26 -12 64 -27 41 -29 42 -53 16z"/>
<path d="M2917 3554 c-9 -9 3 -57 16 -65 6 -4 4 -25 -6 -55 -8 -27 -18 -61
-21 -76 -4 -16 -11 -28 -16 -28 -6 0 -10 -10 -10 -21 0 -22 -54 -169 -91 -245
-10 -23 -19 -46 -19 -52 0 -6 -6 -23 -14 -39 -8 -15 -19 -39 -25 -53 -11 -24
-15 -34 -39 -75 -7 -11 -17 -31 -22 -44 -6 -13 -24 -44 -40 -68 -17 -24 -30
-46 -30 -49 0 -6 -40 -63 -57 -82 -7 -7 -13 -22 -13 -32 0 -10 -5 -22 -10 -25
-6 -4 -24 -34 -41 -68 -16 -34 -34 -69 -39 -77 -19 -31 -90 -188 -90 -199 0
-6 -4 -11 -10 -11 -5 0 -10 -6 -10 -13 0 -27 -55 -118 -135 -222 -8 -10 -15
-24 -15 -31 0 -7 -7 -14 -15 -18 -8 -3 -15 -12 -15 -19 0 -8 -9 -22 -20 -32
-11 -10 -20 -24 -20 -32 0 -7 -4 -13 -9 -13 -9 0 -20 -17 -53 -80 -14 -28 -25
-42 -50 -71 -10 -10 -18 -22 -18 -26 0 -8 -49 -82 -67 -101 -7 -7 -13 -20 -13
-28 0 -8 -5 -14 -11 -14 -5 0 -15 -14 -20 -30 -6 -17 -15 -30 -20 -30 -5 0 -9
-5 -9 -11 0 -6 -15 -31 -32 -57 -18 -26 -45 -73 -60 -104 -16 -31 -33 -60 -38
-63 -6 -3 -10 -14 -10 -24 0 -10 -9 -30 -20 -44 -11 -14 -20 -32 -20 -40 0 -8
-6 -20 -14 -26 -8 -7 -17 -24 -21 -39 -4 -15 -13 -34 -20 -42 -7 -8 -32 -51
-55 -95 -22 -44 -45 -87 -49 -95 -36 -67 -117 -273 -152 -387 -5 -18 -16 -45
-24 -60 -8 -15 -15 -36 -15 -46 0 -10 -5 -28 -12 -40 -6 -12 -15 -35 -19 -52
-13 -48 -40 -129 -50 -148 -6 -11 -5 -24 3 -37 13 -20 22 -20 247 -18 l233 3
3 38 c1 21 11 50 22 65 11 15 23 37 27 50 4 12 14 22 23 22 12 0 14 7 10 30
-10 46 45 90 111 90 43 0 55 14 55 61 0 50 21 89 48 89 15 0 19 7 19 35 0 31
4 37 40 52 41 18 51 37 25 47 -8 3 -15 12 -15 21 0 8 -9 15 -19 15 -44 0 -33
53 19 90 16 12 30 29 30 39 0 10 10 22 23 28 15 7 27 27 36 59 29 103 44 140
66 162 14 14 24 39 28 69 6 53 25 73 72 73 39 0 47 7 33 30 -13 20 -3 55 12
45 5 -3 10 -15 10 -26 0 -32 16 -21 26 19 8 31 13 37 34 35 22 -2 20 0 -13 21
-23 14 -34 27 -28 30 6 4 11 4 11 1 0 -4 7 1 16 9 8 9 22 16 30 16 8 0 19 11
24 25 8 20 16 25 45 25 23 0 38 5 42 16 3 9 15 19 27 24 19 7 18 9 -14 24 -19
8 -29 15 -22 16 7 0 10 5 6 12 -4 6 -3 8 4 4 6 -3 17 3 25 15 13 18 23 20 70
17 30 -1 53 0 50 5 -2 4 -16 8 -31 8 l-27 1 30 8 c29 7 29 8 -10 10 -22 1 -44
2 -49 1 -5 -1 -16 1 -25 5 -13 5 -11 8 9 14 23 7 22 8 -10 9 -61 2 -78 11 -85
43 -5 22 -2 38 13 57 10 14 22 36 26 49 4 12 11 22 16 22 5 0 11 14 15 31 4
17 13 42 21 57 8 15 14 34 14 43 0 9 7 30 15 45 8 16 15 36 15 45 0 8 7 24 15
35 8 10 19 36 25 57 6 20 15 37 20 37 16 0 11 -67 -5 -84 -20 -20 -19 -55 3
-63 20 -7 61 -53 62 -69 0 -15 46 -6 61 12 9 11 8 14 -2 14 -27 1 24 30 53 30
47 0 141 34 146 52 3 11 19 19 47 24 48 7 89 41 83 69 -2 14 -9 9 -29 -18 -24
-35 -26 -36 -47 -21 -21 14 -21 17 -7 44 25 48 20 63 -20 58 -51 -6 -57 31 -8
46 12 4 32 19 43 33 l20 26 0 -30 c0 -22 6 -33 26 -42 33 -15 36 -12 28 27 -4
20 -13 32 -22 32 -8 0 -23 7 -33 15 -9 9 -36 16 -60 17 -27 1 -52 8 -64 19
-16 14 -41 19 -105 21 -73 3 -85 6 -88 21 -6 31 7 65 27 72 16 5 18 11 11 40
-5 22 -3 40 5 52 7 10 15 35 19 55 9 49 53 148 66 148 5 0 10 -4 10 -9 0 -5 6
-16 13 -23 6 -8 17 -23 23 -33 17 -30 71 -32 98 -4 45 48 66 84 66 113 0 24
-3 27 -10 16 -5 -8 -10 -25 -10 -37 0 -13 -6 -23 -15 -23 -7 0 -18 -7 -23 -16
-13 -23 -60 -10 -74 21 -12 27 -2 119 13 110 5 -4 9 15 9 42 1 26 9 66 20 88
11 22 19 45 20 51 0 7 19 33 41 58 31 34 49 46 70 46 34 0 44 -23 40 -100 -1
-36 1 -52 7 -45 14 14 29 123 22 160 -4 25 -10 31 -38 33 -83 8 -171 -81 -202
-206 -6 -23 -15 -40 -20 -37 -19 12 -23 77 -6 128 36 114 35 384 -1 429 -6 7
-14 28 -18 47 -8 36 -37 76 -48 65z m40 -801 c-3 -10 -5 -2 -5 17 0 19 2 27 5
18 2 -10 2 -26 0 -35z m-159 -514 c-4 -28 -28 -38 -28 -11 0 11 3 28 6 37 9
23 27 3 22 -26z m-38 -109 c0 -22 -4 -40 -10 -40 -11 0 -14 63 -3 73 11 12 13
8 13 -33z m197 -127 c-3 -10 -5 -2 -5 17 0 19 2 27 5 18 2 -10 2 -26 0 -35z
m-437 -473 c0 -37 -11 -52 -24 -31 -8 13 5 71 15 71 5 0 9 -18 9 -40z m113
-17 c-7 -2 -19 -2 -25 0 -7 3 -2 5 12 5 14 0 19 -2 13 -5z m-73 -93 c0 -5 -7
-10 -16 -10 -8 0 -12 5 -9 10 3 6 10 10 16 10 5 0 9 -4 9 -10z m-90 -8 c-8 -4
-15 -13 -15 -21 0 -8 -6 -16 -14 -19 -10 -3 -12 0 -8 12 4 10 7 22 7 27 0 5
10 9 23 8 16 0 18 -2 7 -7z m10 -72 c0 -5 -12 -10 -27 -9 l-28 1 25 8 c14 4
26 8 28 9 1 1 2 -3 2 -9z m-544 -925 c4 -8 3 -23 -2 -32 -4 -10 -6 -21 -6 -25
5 -21 -19 -4 -24 17 -11 43 18 78 32 40z"/>
<path d="M3430 3060 c0 -6 -7 -18 -15 -26 -8 -9 -15 -33 -15 -57 l0 -41 20 22
c11 12 20 26 20 32 0 13 17 13 22 -1 2 -6 10 2 18 18 8 15 19 31 25 35 5 4 0
8 -13 8 -13 0 -32 5 -43 10 -13 8 -19 7 -19 0z"/>
<path d="M3593 2983 c-15 -6 -17 -43 -3 -43 6 0 10 5 10 10 0 6 9 10 20 10 12
0 20 -7 20 -16 0 -13 7 -15 30 -10 17 3 30 1 30 -4 0 -12 105 -43 123 -37 6 2
-1 8 -18 12 -16 4 -40 17 -52 28 -15 14 -31 18 -54 15 -24 -4 -33 -1 -36 13
-6 22 -42 34 -70 22z"/>
<path d="M3198 2917 c-5 -10 -8 -37 -7 -60 l1 -42 9 34 c12 40 9 97 -3 68z"/>
<path d="M3370 2896 c0 -7 -9 -25 -20 -39 -28 -35 -25 -45 4 -14 25 27 40 67
25 67 -5 0 -9 -6 -9 -14z"/>
<path d="M3650 2883 c0 -24 -19 -72 -20 -50 0 11 -50 -44 -50 -55 0 -6 -9 -21
-20 -35 -23 -30 -25 -60 -5 -87 20 -27 38 -10 30 30 -3 21 -2 34 5 34 5 0 10
-5 10 -11 0 -5 5 -7 10 -4 6 3 10 19 10 34 0 21 6 30 21 34 18 5 21 12 17 41
-3 27 1 38 20 52 22 17 23 19 6 31 -26 19 -34 16 -34 -14z m-43 -115 c-3 -8
-6 -5 -6 6 -1 11 2 17 5 13 3 -3 4 -12 1 -19z"/>
<path d="M3159 2785 c-6 -40 -4 -53 7 -43 3 3 4 23 2 44 l-3 39 -6 -40z"/>
<path d="M550 2765 c0 -17 2 -18 24 -9 23 9 20 24 -4 24 -11 0 -20 -7 -20 -15z"/>
<path d="M3297 2760 c-3 -11 -1 -20 4 -20 5 0 9 9 9 20 0 11 -2 20 -4 20 -2 0
-6 -9 -9 -20z"/>
<path d="M3266 2705 c-3 -8 -1 -15 4 -15 6 0 10 7 10 15 0 8 -2 15 -4 15 -2 0
-6 -7 -10 -15z"/>
<path d="M3506 2643 c-4 -11 -1 -22 8 -29 9 -6 16 -22 16 -35 0 -19 2 -21 10
-9 15 23 12 49 -9 71 -17 19 -19 19 -25 2z"/>
<path d="M3230 2640 c0 -5 -6 -10 -14 -10 -17 0 -28 -24 -20 -45 7 -17 44 -21
44 -5 0 6 7 10 15 10 10 0 15 10 15 30 0 23 -4 30 -20 30 -11 0 -20 -4 -20
-10z"/>
<path d="M4700 2636 c0 -2 7 -6 15 -10 8 -3 15 -1 15 4 0 6 -7 10 -15 10 -8 0
-15 -2 -15 -4z"/>
<path d="M3480 2595 c0 -8 -9 -20 -20 -27 -11 -7 -20 -22 -20 -33 0 -18 2 -18
24 5 27 28 43 70 27 70 -6 0 -11 -7 -11 -15z"/>
<path d="M4852 2603 c21 -44 46 -73 63 -72 11 0 15 3 8 5 -7 3 -10 11 -7 18 2
6 -7 22 -21 34 -24 21 -50 30 -43 15z"/>
<path d="M3500 2529 c0 -5 5 -7 10 -4 6 3 10 8 10 11 0 2 -4 4 -10 4 -5 0 -10
-5 -10 -11z"/>
<path d="M3465 2520 c3 -5 8 -10 11 -10 2 0 4 5 4 10 0 6 -5 10 -11 10 -5 0
-7 -4 -4 -10z"/>
<path d="M4988 2473 c-2 -32 2 -68 8 -80 10 -20 12 -15 17 42 4 36 4 72 1 80
-12 30 -22 13 -26 -42z"/>
<path d="M2873 2410 c-17 -26 -2 -33 47 -25 46 8 50 17 15 33 -36 17 -48 15
-62 -8z"/>
<path d="M4316 2420 c6 -6 21 -6 39 -1 30 9 30 9 -9 10 -26 1 -37 -2 -30 -9z"/>
<path d="M4953 2373 c-9 -3 -9 -12 -1 -35 l11 -31 13 24 c22 40 15 54 -23 42z"/>
<path d="M4782 2332 c-25 -8 -27 -29 -2 -24 8 2 23 4 33 5 20 2 24 21 5 24 -7
0 -23 -2 -36 -5z"/>
<path d="M3197 2164 c-12 -13 6 -34 31 -34 28 0 25 10 -5 15 -10 1 -17 8 -15
14 2 12 -2 14 -11 5z"/>
<path d="M3290 2065 c0 -8 5 -15 10 -15 6 0 10 7 10 15 0 8 -4 15 -10 15 -5 0
-10 -7 -10 -15z"/>
<path d="M1940 2041 c0 -6 4 -12 9 -15 5 -3 11 -17 13 -31 5 -22 1 -26 -33
-35 -37 -10 -54 -30 -26 -30 7 0 29 -14 47 -30 30 -27 35 -28 43 -14 6 10 5
25 -2 40 -10 22 -8 24 28 35 36 11 37 12 21 28 -28 27 -60 42 -72 35 -8 -5 -9
-2 -5 9 4 11 1 17 -8 17 -8 0 -15 -4 -15 -9z"/>
<path d="M3361 1922 c-1 -7 -5 -10 -11 -7 -6 4 -9 -5 -8 -19 2 -25 23 -43 32
-27 3 4 1 21 -4 37 -4 16 -9 23 -9 16z"/>
<path d="M2920 1880 c0 -5 5 -10 11 -10 5 0 7 -5 3 -11 -4 -7 -1 -10 7 -7 23
8 23 38 0 38 -12 0 -21 -4 -21 -10z"/>
<path d="M3050 1870 c0 -5 16 -10 35 -10 19 0 35 5 35 10 0 6 -16 10 -35 10
-19 0 -35 -4 -35 -10z"/>
<path d="M4020 1861 c0 -10 -7 -21 -15 -25 -8 -3 -15 -15 -15 -27 0 -22 0 -22
24 2 31 32 43 69 22 69 -9 0 -16 -8 -16 -19z"/>
<path d="M2960 1846 c0 -9 7 -12 21 -9 16 4 17 8 7 14 -19 13 -28 11 -28 -5z"/>
<path d="M3040 1840 c0 -5 7 -10 16 -10 8 0 12 5 9 10 -3 6 -10 10 -16 10 -5
0 -9 -4 -9 -10z"/>
<path d="M3355 1840 c3 -5 10 -10 16 -10 5 0 9 5 9 10 0 6 -7 10 -16 10 -8 0
-12 -4 -9 -10z"/>
<path d="M2843 1803 c9 -2 23 -2 30 0 6 3 -1 5 -18 5 -16 0 -22 -2 -12 -5z"/>
<path d="M6637 1793 c-13 -12 -7 -26 6 -15 6 5 21 12 32 15 16 4 15 5 -6 6
-14 0 -29 -2 -32 -6z"/>
<path d="M6625 1701 c-3 -5 -1 -12 5 -16 14 -9 52 4 45 16 -8 12 -42 12 -50 0z"/>
<path d="M3832 1590 c-24 -22 -24 -25 -13 -54 7 -17 10 -16 35 17 38 50 22 78
-22 37z"/>
<path d="M24 1558 c-4 -6 -2 -14 4 -16 17 -5 15 -22 -5 -44 -10 -12 -12 -18
-4 -18 7 0 9 -5 5 -11 -7 -13 15 -31 28 -22 5 2 6 13 3 24 -5 14 1 22 19 31
25 11 25 12 9 31 -27 29 -51 39 -59 25z"/>
<path d="M2789 1519 c-10 -6 -4 -9 19 -9 17 0 32 2 32 4 0 9 -39 13 -51 5z"/>
<path d="M2913 1483 c9 -2 25 -2 35 0 9 3 1 5 -18 5 -19 0 -27 -2 -17 -5z"/>
<path d="M2800 1439 c0 -5 5 -7 10 -4 6 3 10 8 10 11 0 2 -4 4 -10 4 -5 0 -10
-5 -10 -11z"/>
<path d="M2835 1440 c-3 -6 1 -7 9 -4 18 7 21 14 7 14 -6 0 -13 -4 -16 -10z"/>
<path d="M3752 1315 c0 -16 2 -22 5 -12 2 9 2 23 0 30 -3 6 -5 -1 -5 -18z"/>
<path d="M3226 1281 c-3 -4 -1 -13 5 -21 5 -9 9 -10 9 -3 0 6 8 13 18 15 14 3
13 5 -5 10 -13 3 -25 3 -27 -1z"/>
<path d="M3712 1266 c-14 -30 -9 -47 9 -29 6 6 9 21 7 34 -3 23 -3 23 -16 -5z"/>
<path d="M3680 1204 c0 -8 5 -12 10 -9 6 3 10 10 10 16 0 5 -4 9 -10 9 -5 0
-10 -7 -10 -16z"/>
<path d="M3215 1140 c-3 -5 -1 -10 4 -10 6 0 11 5 11 10 0 6 -2 10 -4 10 -3 0
-8 -4 -11 -10z"/>
<path d="M2538 1103 c7 -3 16 -2 19 1 4 3 -2 6 -13 5 -11 0 -14 -3 -6 -6z"/>
<path d="M3338 1103 c7 -3 16 -2 19 1 4 3 -2 6 -13 5 -11 0 -14 -3 -6 -6z"/>
<path d="M3387 1010 c-26 -51 -23 -72 9 -64 17 4 29 2 35 -7 4 -7 11 -10 15
-7 6 7 3 19 -15 48 -5 8 -13 26 -18 39 l-10 25 -16 -34z"/>
<path d="M3945 1020 c-3 -5 -14 -10 -23 -10 -9 0 -31 -18 -49 -39 -25 -30 -33
-51 -37 -95 -4 -43 -2 -56 8 -56 19 0 66 72 66 101 0 31 28 59 59 59 21 0 79
-26 91 -41 3 -4 24 -10 47 -14 24 -4 45 -11 48 -15 7 -11 37 -1 47 14 4 6 8
29 8 50 l0 39 -70 -7 c-50 -4 -81 -2 -112 9 -50 17 -74 19 -83 5z"/>
<path d="M3202 970 c0 -14 2 -19 5 -12 2 6 2 18 0 25 -3 6 -5 1 -5 -13z"/>
<path d="M4568 971 c-26 -10 -70 -80 -63 -102 6 -18 25 -27 25 -11 0 4 13 13
29 19 23 8 31 19 37 48 7 40 -2 56 -28 46z"/>
<path d="M3121 914 c0 -11 3 -14 6 -6 3 7 2 16 -1 19 -3 4 -6 -2 -5 -13z"/>
<path d="M3222 840 c0 -14 2 -19 5 -12 2 6 2 18 0 25 -3 6 -5 1 -5 -13z"/>
<path d="M4160 832 c0 -7 -4 -11 -9 -7 -17 10 -41 -36 -30 -57 9 -16 13 -17
25 -7 26 21 36 48 25 67 -7 10 -11 12 -11 4z"/>
<path d="M4014 769 c-3 -6 0 -15 7 -20 22 -14 59 -11 59 5 0 7 -10 16 -22 20
-32 8 -36 8 -44 -5z"/>
<path d="M3916 756 c3 -9 -1 -13 -12 -13 -23 2 -30 -21 -9 -29 10 -4 22 1 31
15 8 11 22 21 30 21 8 0 14 5 14 10 0 6 -13 10 -30 10 -21 0 -28 -4 -24 -14z"/>
<path d="M2600 715 c0 -8 2 -15 4 -15 2 0 6 7 10 15 3 8 1 15 -4 15 -6 0 -10
-7 -10 -15z"/>
<path d="M2696 721 c-8 -12 3 -41 15 -41 5 0 9 11 9 25 0 25 -14 34 -24 16z"/>
<path d="M2566 694 c-11 -7 -17 -16 -15 -19 3 -3 14 2 25 9 10 8 17 17 14 19
-3 3 -14 -1 -24 -9z"/>
<path d="M6515 691 c-7 -12 12 -24 25 -16 11 7 4 25 -10 25 -5 0 -11 -4 -15
-9z"/>
<path d="M2740 655 c0 -8 5 -15 10 -15 6 0 10 7 10 15 0 8 -4 15 -10 15 -5 0
-10 -7 -10 -15z"/>
<path d="M6573 633 c-7 -2 -13 -13 -13 -23 0 -16 3 -17 25 -7 41 19 29 47 -12
30z"/>
<path d="M2637 624 c-12 -12 3 -22 23 -17 11 3 17 9 14 14 -6 10 -28 12 -37 3z"/>
<path d="M2463 613 c9 -2 23 -2 30 0 6 3 -1 5 -18 5 -16 0 -22 -2 -12 -5z"/>
<path d="M3116 596 c5 -13 44 -19 44 -7 0 5 -11 11 -24 13 -15 3 -23 1 -20 -6z"/>
<path d="M2288 583 c7 -3 16 -2 19 1 4 3 -2 6 -13 5 -11 0 -14 -3 -6 -6z"/>
<path d="M2700 570 c0 -5 5 -10 10 -10 6 0 10 5 10 10 0 6 -4 10 -10 10 -5 0
-10 -4 -10 -10z"/>
<path d="M2897 573 c-6 -5 2 -103 8 -113 3 -5 0 -11 -7 -11 -47 -5 -70 -4 -74
3 -9 13 -24 9 -24 -7 0 -10 -11 -15 -35 -15 -19 0 -57 -9 -85 -20 -29 -11 -62
-21 -75 -22 -13 -1 -22 -5 -19 -9 2 -4 -22 -13 -53 -21 l-58 -13 84 -3 c93 -3
126 3 101 18 -10 7 13 10 67 10 69 0 81 2 77 15 -9 22 15 48 31 35 14 -11 45
-3 45 11 0 5 16 9 36 9 21 0 33 4 29 10 -3 6 -2 10 3 10 20 0 23 34 5 48 -11
8 -17 23 -15 40 3 22 -1 28 -18 28 -12 0 -22 -1 -23 -3z"/>
<path d="M2535 480 c-18 -19 -17 -21 6 -41 17 -15 32 -19 53 -15 16 3 32 6 37
6 5 0 9 5 9 10 0 6 -9 10 -20 10 -10 0 -23 6 -27 13 -4 6 -15 18 -24 24 -13
11 -19 9 -34 -7z"/>
<path d="M2720 474 c0 -16 5 -24 13 -22 18 7 20 35 2 41 -11 5 -15 0 -15 -19z"/>
<path d="M4307 350 c-3 -11 -1 -23 4 -26 5 -3 9 6 9 20 0 31 -6 34 -13 6z"/>
<path d="M2413 353 c9 -2 25 -2 35 0 9 3 1 5 -18 5 -19 0 -27 -2 -17 -5z"/>
<path d="M2241 316 c7 -8 179 -9 186 -2 3 3 -38 6 -92 6 -54 0 -96 -2 -94 -4z"/>
<path d="M4193 64 c-3 -9 -15 -20 -27 -24 l-21 -9 21 0 c12 -1 24 -8 28 -16 3
-8 10 -15 16 -15 5 0 10 7 10 15 0 10 11 15 33 16 l32 1 -32 9 c-18 5 -33 16
-33 24 0 20 -19 19 -27 -1z"/>
<path d="M2618 23 c12 -2 32 -2 45 0 12 2 2 4 -23 4 -25 0 -35 -2 -22 -4z"/>
<path d="M7408 23 c12 -2 32 -2 45 0 12 2 2 4 -23 4 -25 0 -35 -2 -22 -4z"/>
</g>
</svg>
